<?xml version="1.0" encoding="utf-8"?>
<!-- Generator: Adobe Illustrator 23.0.1, SVG Export Plug-In . SVG Version: 6.00 Build 0)  -->
<svg version="1.1" id="Capa_1" xmlns="http://www.w3.org/2000/svg" xmlns:xlink="http://www.w3.org/1999/xlink" x="0px" y="0px"
	 viewBox="0 0 512 512" style="enable-background:new 0 0 512 512;" xml:space="preserve">
<style type="text/css">
	.st0{fill:#2196F3;}
</style>
<path class="st0" d="M405.3,21.3c-78.9,0-128,23.2-128,138.7c0,5.9,4.8,10.7,10.7,10.7h32c19.2,0,20.6,9.1,21.3,13.5
	c5.1,35.2-50.9,110.5-64,114.5c-14.7,0-27.5-73-35-116.7C228,99.4,214.4,21.3,170.7,21.3c-29.6,0-91.7,40.3-168.8,154
	c-3.3,4.9-2,11.5,2.8,14.8c0.4,0.3,0.8,0.5,1.2,0.7l42.7,21.3c4.1,2.1,9.1,1.2,12.3-2l27.3-27.3c10.9,77.1,51.3,307.8,146.5,307.8
	c108.8,0,277.3-233.9,277.3-352C512,66.3,471.1,21.3,405.3,21.3z"/>
</svg>
